<?xml version="1.0" standalone="no"?><!DOCTYPE svg PUBLIC "-//W3C//DTD SVG 1.1//EN" "http://www.w3.org/Graphics/SVG/1.1/DTD/svg11.dtd"><svg t="1679623934235" class="icon" viewBox="0 0 1024 1024" version="1.1" xmlns="http://www.w3.org/2000/svg" p-id="1956" xmlns:xlink="http://www.w3.org/1999/xlink" width="64" height="64"><path d="M617.258667 567.424c-2.261333 3.392-3.477333 6.933333-3.648 11.136-0.170667 3.925333-2.090667 7.701333-3.861334 11.306667-0.682667 1.386667-1.237333 2.858667-1.386666 4.373333-1.002667 11.434667-5.333333 21.994667-8.618667 32.810667-4.032 13.312-9.173333 26.218667-14.933333 38.890666-0.853333 1.877333-1.749333 3.690667-3.093334 5.269334-0.490667 0.576-1.066667 1.28-1.109333 1.962666-0.170667 3.242667-1.706667 6.016-3.541333 8.384-3.050667 3.904-4.864 8.512-7.808 12.437334-6.741333 8.96-14.954667 16.341333-24.064 22.784-13.653333 9.642667-27.306667 19.306667-40.746667 29.248-9.450667 6.997333-19.797333 12.309333-30.805333 16.341333-5.461333 2.005333-11.029333 2.602667-16.810667 1.173333-4.970667-1.216-9.984-2.261333-14.698667-4.288-1.621333-0.682667-3.52-1.365333-3.690666-3.498666-0.170667-2.325333 1.024-4.010667 2.944-5.312 8.256-5.653333 17.173333-10.154667 25.770666-15.210667 14.826667-8.704 28.970667-18.368 42.346667-29.12 16.149333-12.970667 28.714667-28.885333 37.76-47.488 7.04-14.485333 13.781333-29.162667 19.413333-44.245333 5.013333-13.418667 8.106667-27.456 10.709334-41.557334 0.32-1.685333 0.362667-3.413333 0.106666-5.098666-0.618667-3.968-4.608-5.482667-7.637333-2.88-0.810667 0.704-1.642667 1.152-2.666667 1.365333-23.381333 4.842667-46.570667 10.410667-69.248 17.984-12.522667 4.181333-25.258667 7.722667-38.037333 11.136-3.242667 0.874667-6.656 0.128-9.834667 1.258667-7.146667 2.538667-14.208 1.472-21.290666-0.426667-2.197333-0.597333-3.456-1.962667-4.245334-3.946667-0.128-0.298667-0.128-0.746667-0.362666-0.917333-2.816-2.026667-1.216-3.818667 0.192-5.717333 2.432-3.264 5.354667-5.866667 8.981333-7.808 8.298667-4.458667 17.024-7.850667 25.984-10.645334 14.656-4.565333 28.629333-11.072 43.2-15.872 3.562667-1.173333 7.189333-2.176 10.752-3.328 2.517333-0.832 4.885333-2.005333 7.018667-3.648 3.029333-2.325333 4.672-5.354667 4.629333-9.237333-0.106667-8.704-1.301333-17.344-1.813333-26.026667-1.109333-18.56-6.293333-36.416-9.258667-54.677333-1.045333-6.421333-1.642667-12.864-0.981333-19.349333 0.128-1.216 0.170667-2.645333-0.704-3.413334-2.069333-1.770667-2.090667-4.181333-2.432-6.506666-0.917333-6.357333-3.029333-12.416-5.056-18.474667-2.069333-6.165333-3.626667-12.416-3.328-19.029333 0.085333-2.026667 0.746667-2.858667 2.709333-3.2 3.178667-0.533333 6.272-0.448 9.386667 0.32 3.648 0.917333 7.104 2.346667 10.432 4.16 7.530667 4.074667 15.445333 6.058667 24.106666 5.056 11.349333-1.322667 22.741333-2.538667 33.792-5.397334 11.306667-2.922667 18.389333-10.965333 18.688-23.445333 0.789333-32.298667-1.578667-64.426667-9.066666-96-1.088-4.565333-2.325333-9.088-3.605334-13.589333-2.24-7.893333-5.546667-15.189333-11.904-20.778667-7.232-6.336-6.293333-14.058667-3.605333-19.498667 2.197333-4.48 3.626667-5.034667 8.426667-4.032 8.725333 1.813333 16.32 6.421333 24.384 9.813334 4.714667 1.984 9.301333 4.266667 13.845333 6.592 5.866667 3.029333 10.496 11.328 9.066667 17.749333-4.437333 19.776-3.52 39.872-3.84 59.882667-0.192 12.373333-0.576 24.746667-0.106667 37.098666 0.192 5.12 0.32 10.24 0.64 15.338667 0.490667 7.808 5.013333 11.754667 13.674667 12.010667 6.741333 0.213333 13.226667-1.216 19.584-3.221334 18.410667-5.802667 37.205333-9.728 56.213333-13.141333 21.930667-3.946667 41.92 9.621333 48.746667 25.28 0.554667 1.258667 1.130667 2.496 1.344 3.84 0.554667 3.733333-0.533333 5.888-3.989334 7.317333-3.072 1.258667-6.208 2.368-9.386666 3.370667-4.16 1.322667-7.061333 3.968-9.088 7.765333-1.770667 3.328-3.029333 6.848-4.117334 10.453334-5.845333 19.370667-13.717333 37.994667-21.653333 56.576-2.24 5.248-4.650667 10.432-6.997333 15.637333-0.277333 0.618667-0.554667 1.344-1.066667 1.706667-2.133333 1.493333-3.690667 3.242667-3.712 6.037333 0 0.512-0.533333 1.024-0.853333 1.578667 0.64 0.085333 1.429333-0.042667 1.749333 0.277333 2.816 2.773333 6.421333 2.368 9.877333 2.538667 19.946667 0.96 39.936 0.170667 59.882667 1.045333 10.624 0.469333 21.077333 1.642667 30.912 6.101333 4.352 1.962667 8.085333 4.714667 11.178667 8.341334 2.688 3.178667 2.730667 4.970667 0.746666 8.554666-3.968 7.168-10.666667 9.088-18.090666 9.578667-6.464 0.426667-12.949333 0.554667-19.434667 0.149333-2.944-0.192-5.802667-1.024-8.810667-1.194666-10.410667-0.576-20.650667 0.512-30.741333 2.816-13.802667 3.136-27.754667 5.504-41.706667 7.829333-17.024 2.837333-33.514667 7.872-50.176 12.181333-4.522667 1.173333-4.906667 1.856-2.197333 5.909334 12.437333 18.538667 23.872 37.696 36.778667 55.936 13.525333 19.114667 28.629333 36.757333 46.677333 51.712 11.904 9.834667 24.277333 19.093333 37.482667 27.136 11.989333 7.296 25.152 11.605333 38.570666 15.381333 25.173333 7.082667 50.986667 10.922667 76.501334 16.277333 11.392 2.389333 22.272 6.336 32.768 11.392 9.493333 4.565333 14.4 12.650667 16.938666 22.250667 0.896 3.392-1.024 6.976-3.52 9.728-3.754667 4.16-8.725333 5.717333-14.122666 6.378667-8.426667 1.045333-16.874667 0.469333-25.301334 0.341333-28.416-0.448-56.085333-5.952-83.498666-12.821333-13.994667-3.498667-26.944-9.92-38.656-18.325334-15.466667-11.072-30.677333-22.485333-44.416-35.754666-19.584-18.901333-37.674667-39.04-52.565334-61.888-3.861333-5.930667-7.850667-11.754667-11.776-17.621334-0.042667-0.064-0.085333-0.170667-0.128-0.213333-2.816-2.325333-4.117333-5.674667-6.122666-8.576-7.296-10.602667-13.653333-21.845333-21.290667-32.213333-2.325333-3.157333-4.416-6.485333-5.525333-10.325334-0.512-1.792-1.642667-3.178667-3.392-3.925333-2.176-0.938667-2.816-3.456-4.736-4.416z m82.176-179.498667c-1.664 0.32-3.328 0.597333-4.949334 0.981334-14.250667 3.434667-28.16 8.106667-42.24 12.117333-6.208 1.770667-12.288 4.032-18.773333 4.928-3.498667 0.490667-5.482667 2.602667-5.76 5.568-0.96 10.517333-2.218667 21.034667-2.517333 31.594667-0.576 20.885333-1.002667 41.770667-1.450667 62.656-0.106667 4.906667 2.218667 7.637333 7.061333 8.277333 3.285333 0.448 6.613333 0.768 9.92 0.938667 5.44 0.277333 10.837333 0.469333 15.936-2.346667 10.666667-5.909333 18.24-14.421333 22.698667-25.728 9.066667-22.997333 13.589333-47.082667 16.938667-71.445333 1.258667-9.088 2.090667-18.218667 3.136-27.541334z m-151.637334 88.426667v41.472c0 1.877333 0.170667 3.733333 0.512 5.589333 0.490667 2.666667 2.581333 4.117333 4.288 5.781334 0.896 0.853333 2.24-0.256 3.413334-0.256 1.706667 0 3.413333-0.042667 5.12-0.128 3.584-0.170667 7.146667-0.448 10.602666-1.493334 10.624-3.221333 17.237333-9.856 18.602667-21.248 1.109333-9.237333 1.685333-18.517333 2.048-27.797333 0.384-9.450667 0.661333-18.922667 0.853333-28.394667 0.170667-8.704 0.234667-17.408 0.256-26.112 0.021333-4.181333-2.986667-6.634667-6.997333-5.994666-11.114667 1.813333-22.08 4.288-32.725333 8.064-4.672 1.642667-5.973333 3.221333-5.973334 8.256v42.261333zM355.029333 359.381333c1.621333 0.448 2.56 1.472 3.477334 2.773334 1.834667 2.602667 4.906667 3.584 7.68 4.885333 2.218667 1.066667 4.608 1.813333 6.869333 2.773333 7.722667 3.264 11.52 10.944 9.557333 19.157334-1.344 5.546667-3.861333 10.581333-7.061333 15.232-7.253333 10.538667-14.613333 21.013333-22.016 31.445333-3.989333 5.610667-2.453333 9.728 4.309333 11.029333 4.522667 0.874667 8.832-0.192 13.056-1.557333 14.677333-4.757333 29.44-9.237333 44.352-13.226667 4.8-1.28 9.621333-2.197333 14.656-1.877333 5.845333 0.384 10.496 2.986667 13.909334 7.594667 4.864 6.549333 7.04 13.952 6.229333 22.144-0.448 4.48-3.221333 7.808-6.037333 11.029333-1.365333 1.557333-3.648 2.218667-4.181334 4.586667-0.128 0.618667-0.96 0.597333-1.514666 0.789333-3.456 1.194667-6.421333 3.008-8.576 6.08-0.853333 1.216-2.304 1.984-3.370667 3.072-3.072 3.157333-5.184 6.954667-6.976 10.944-5.909333 13.056-11.648 26.176-17.813333 39.104-3.818667 8-8.981333 15.402667-12.288 23.573333-6.634667 16.490667-15.317333 31.872-23.509334 47.573334-11.712 22.464-26.069333 43.221333-41.173333 63.488-4.949333 6.656-10.837333 12.501333-17.066667 17.984-12.117333 10.666667-24.533333 20.906667-38.08 29.76-9.173333 5.994667-18.986667 9.024-29.973333 8.341333-3.861333-0.234667-6.848-1.685333-9.365333-4.48-1.109333-1.237333-1.301333-2.112 0.021333-3.370667 6.784-6.485333 13.418667-13.205333 21.546667-18.005333 13.312-7.872 24.661333-17.898667 34.282666-29.973333 6.869333-8.597333 14.485333-16.576 20.949334-25.493334 7.658667-10.538667 13.568-22.08 19.626666-33.536 3.178667-6.016 2.965333-12.074667-0.768-17.984-2.368-3.754667-4.8-7.466667-7.573333-10.922666-10.901333-13.653333-21.504-27.541333-31.082667-42.154667-2.218667-3.370667-5.504-4.629333-8.64-6.293333-1.002667-0.533333-1.92 0.96-2.709333 1.813333-4.288 4.608-8.064 9.621333-12.992 13.696-8.149333 6.741333-17.322667 11.072-27.669333 13.098667-2.922667 0.576-5.781333 0.277333-8.512-0.917334-2.730667-1.216-3.136-2.56-1.386667-4.949333 1.194667-1.642667 2.474667-3.285333 3.904-4.736 5.205333-5.290667 9.237333-11.370667 12.650667-17.898667 4.736-9.045333 10.602667-17.365333 17.685333-24.661333 16.576-17.045333 30.272-36.224 43.050667-56.170667 9.024-14.08 17.429333-28.522667 25.28-43.285333 2.730667-5.141333 5.056-10.496 6.741333-16.021333 2.368-7.829333-0.746667-14.485333-5.76-20.437334-0.576-0.682667-1.770667-1.002667-1.6-2.133333 0.490667-3.093333-1.322667-2.282667-2.944-1.792-1.002667 0.298667-2.005333 0.384-3.029333 0.085333-12.181333-3.541333-24.597333-3.157333-37.056-2.197333-8.021333 0.618667-15.957333 0.768-23.808-1.749333-6.272-2.005333-10.346667-6.165333-12.906667-11.904-2.261333-5.12 1.365333-9.493333 6.954667-8.746667 13.248 1.770667 26.112 0.234667 38.890666-3.669333 21.461333-6.549333 42.453333-14.442667 63.744-21.418667 17.664-5.802667 35.306667-11.562667 52.202667-19.434667 15.594667-7.253333 31.850667-7.253333 48.298667-3.370666 4.266667 1.002667 7.850667 3.2 10.773333 6.528 4.693333 5.354667 4.650667 11.776-0.213333 17.066666-1.813333 1.962667-3.882667 3.605333-6.250667 4.821334-9.045333 4.629333-18.090667 9.408-28.053333 11.605333-8.256 1.813333-15.957333 5.354667-24.256 6.997333-15.381333 3.050667-30.762667 6.058667-46.037334 9.664-2.474667 0.576-4.8 1.258667-5.909333 3.904-0.341333 0.96-1.621333 0.896-2.538667 1.728z m-14.506666 112.085334c-4.181333 0.448-8.128 1.301333-10.816 5.184-4.949333 7.104-10.922667 13.290667-17.578667 18.837333-4.117333 3.434667-8.085333 7.082667-12.096 10.666667-0.896 0.789333-1.770667 1.621333-2.474667 2.56-1.642667 2.154667-2.325333 5.354667-1.408 7.189333 1.770667 3.477333 4.736 6.378667 7.914667 8.896 12.096 9.6 24.469333 18.837333 36.224 28.864 5.269333 4.501333 9.898667 1.877333 11.285333-3.413333 1.962667-7.530667 5.546667-14.250667 9.514667-20.842667 8.725333-14.549333 17.301333-29.205333 23.68-44.992 3.349333-8.256-0.085333-13.312-8.981333-12.885333-3.477333 0.170667-6.954667 0.725333-10.432 1.002666-8.32 0.64-16.554667 0-24.832-1.066666z" p-id="1957"></path></svg>